<svg width="131" height="28" viewBox="0 0 131 28" fill="none" xmlns="http://www.w3.org/2000/svg">
<path d="M20 10.5285H13.2235V3.3335H6.72941C6.72941 7.30834 3.71765 10.5285 0 10.5285V17.4719H6.72941V24.6668H13.2235C13.2235 20.692 16.2824 17.4719 20 17.4719V10.5285Z" fill="#201B21"/>
<path d="M30.07 20.333C29.3162 20.333 28.7118 20.1481 28.2567 19.7783C27.8158 19.4086 27.5953 18.8255 27.5953 18.029V5.71967H31.6487V17.2183H33.8033V20.333H30.07ZM25.782 11.7357V8.79167H33.782V11.7357H25.782ZM41.2252 20.5677C40.258 20.5677 39.3763 20.4397 38.5798 20.1837C37.7976 19.9277 37.1292 19.5579 36.5745 19.0743C36.0198 18.5908 35.586 18.0077 35.2732 17.325C34.9745 16.6281 34.8252 15.853 34.8252 14.9997V14.1037C34.8252 12.9659 35.0883 11.9846 35.6145 11.1597C36.1549 10.3348 36.9016 9.69478 37.8545 9.23967C38.8074 8.78456 39.9309 8.55701 41.2252 8.55701C42.178 8.55701 43.0314 8.68501 43.7852 8.94101C44.5532 9.19701 45.2074 9.56678 45.7478 10.0503C46.3025 10.5339 46.7292 11.1099 47.0278 11.7783C47.3265 12.4468 47.4758 13.2006 47.4758 14.0397V15.5543H38.3665V13.3357H43.6358L43.3372 13.6557V12.973C43.3372 12.6175 43.2518 12.3117 43.0812 12.0557C42.9105 11.7997 42.6687 11.6006 42.3558 11.4583C42.0429 11.3161 41.666 11.245 41.2252 11.245C40.77 11.245 40.3718 11.3232 40.0305 11.4797C39.7034 11.6219 39.4474 11.8281 39.2625 12.0983C39.0918 12.3686 39.0065 12.6886 39.0065 13.0583V16.045C39.0065 16.4006 39.0989 16.7206 39.2838 17.005C39.4829 17.2752 39.746 17.4886 40.0732 17.645C40.4145 17.8015 40.8198 17.8797 41.2892 17.8797C41.8438 17.8797 42.306 17.7801 42.6758 17.581C43.0456 17.3677 43.2803 17.0761 43.3798 16.7063H47.3692C47.2412 17.4886 46.8927 18.1712 46.3238 18.7543C45.7692 19.3375 45.0509 19.7855 44.1692 20.0983C43.3016 20.4112 42.3203 20.5677 41.2252 20.5677ZM55.1205 20.5677C54.1392 20.5677 53.2503 20.4397 52.4538 20.1837C51.6716 19.9135 51.0032 19.5366 50.4485 19.053C49.908 18.5695 49.4885 17.9863 49.1898 17.3037C48.8912 16.621 48.7418 15.853 48.7418 14.9997V14.1037C48.7418 12.9659 49.0049 11.9846 49.5312 11.1597C50.0574 10.3348 50.7969 9.69478 51.7498 9.23967C52.7169 8.78456 53.8476 8.55701 55.1418 8.55701C56.3649 8.55701 57.4174 8.74901 58.2992 9.13301C59.1952 9.50278 59.8992 10.029 60.4112 10.7117C60.9232 11.3943 61.2005 12.1908 61.2432 13.101H57.1898C57.1329 12.5606 56.9267 12.1552 56.5712 11.885C56.2298 11.6148 55.7605 11.4797 55.1632 11.4797C54.708 11.4797 54.3169 11.5579 53.9898 11.7143C53.6627 11.8708 53.4067 12.0912 53.2218 12.3757C53.0512 12.6601 52.9658 12.9872 52.9658 13.357V15.7463C52.9658 16.1161 53.0512 16.4432 53.2218 16.7277C53.4067 17.0121 53.6627 17.2326 53.9898 17.389C54.3312 17.5455 54.7294 17.6237 55.1845 17.6237C55.5685 17.6237 55.9027 17.5668 56.1872 17.453C56.4716 17.325 56.6992 17.1401 56.8698 16.8983C57.0405 16.6423 57.14 16.3437 57.1685 16.0023H61.2858C61.2289 16.9126 60.9303 17.709 60.3898 18.3917C59.8636 19.0743 59.1454 19.6077 58.2352 19.9917C57.3392 20.3757 56.3009 20.5677 55.1205 20.5677ZM62.6263 20.333V4.78101H66.6797V10.2637H66.829C67.2699 9.70901 67.8103 9.28945 68.4503 9.00501C69.0903 8.72056 69.8014 8.57834 70.5837 8.57834C71.5365 8.57834 72.333 8.75612 72.973 9.11167C73.613 9.46723 74.0965 9.97212 74.4237 10.6263C74.7508 11.2663 74.9143 12.0486 74.9143 12.973V20.333H70.8397V13.549C70.8397 13.1366 70.7685 12.7881 70.6263 12.5037C70.4983 12.2192 70.2921 11.9988 70.0077 11.8423C69.7374 11.6859 69.389 11.6077 68.9623 11.6077C68.4645 11.6077 68.0237 11.7143 67.6397 11.9277C67.2557 12.1268 66.9357 12.4041 66.6797 12.7597V20.333H62.6263ZM76.6263 20.333V8.79167H80.2317L80.6797 10.2637H80.829C81.2699 9.70901 81.8103 9.28945 82.4503 9.00501C83.0903 8.72056 83.8014 8.57834 84.5837 8.57834C85.5365 8.57834 86.333 8.75612 86.973 9.11167C87.613 9.46723 88.0965 9.97212 88.4237 10.6263C88.7508 11.2663 88.9143 12.0486 88.9143 12.973V20.333H84.8397V13.549C84.8397 13.1366 84.7685 12.7881 84.6263 12.5037C84.4983 12.2192 84.2921 11.9988 84.0077 11.8423C83.7374 11.6859 83.389 11.6077 82.9623 11.6077C82.4645 11.6077 82.0237 11.7143 81.6397 11.9277C81.2557 12.1268 80.9357 12.4041 80.6797 12.7597V20.333H76.6263ZM96.7887 20.5677C95.7931 20.5677 94.8971 20.4397 94.1007 20.1837C93.3184 19.9135 92.6429 19.5366 92.074 19.053C91.5193 18.5695 91.0927 17.9863 90.794 17.3037C90.4953 16.621 90.346 15.853 90.346 14.9997V14.1037C90.346 12.9801 90.6091 12.0059 91.1353 11.181C91.6615 10.3419 92.4011 9.69478 93.354 9.23967C94.3211 8.78456 95.466 8.55701 96.7887 8.55701C97.7842 8.55701 98.6731 8.68501 99.4553 8.94101C100.238 9.19701 100.906 9.5739 101.461 10.0717C102.03 10.5552 102.463 11.1383 102.762 11.821C103.061 12.4895 103.21 13.2503 103.21 14.1037V14.9997C103.21 16.1375 102.947 17.1259 102.421 17.965C101.909 18.7899 101.169 19.4299 100.202 19.885C99.2491 20.3401 98.1113 20.5677 96.7887 20.5677ZM96.7887 17.6237C97.2438 17.6237 97.6349 17.5455 97.962 17.389C98.2891 17.2326 98.5451 17.0121 98.73 16.7277C98.9149 16.4432 99.0073 16.1161 99.0073 15.7463V13.357C99.0073 12.9872 98.9149 12.6601 98.73 12.3757C98.5451 12.0912 98.2891 11.8708 97.962 11.7143C97.6349 11.5579 97.2438 11.4797 96.7887 11.4797C96.3335 11.4797 95.9353 11.5579 95.594 11.7143C95.2669 11.8708 95.0109 12.0912 94.826 12.3757C94.6553 12.6601 94.57 12.9872 94.57 13.357V15.7463C94.57 16.1161 94.6553 16.4432 94.826 16.7277C95.0109 17.0121 95.2669 17.2326 95.594 17.389C95.9353 17.5455 96.3335 17.6237 96.7887 17.6237ZM107.502 20.333L103.299 8.79167H107.502L109.657 15.7677L109.998 17.2183H110.126L110.446 15.7677L112.622 8.79167H116.803L112.643 20.333H107.502ZM121.984 20.5463C121.231 20.5463 120.548 20.4255 119.936 20.1837C119.325 19.9277 118.799 19.5721 118.358 19.117C117.931 18.6477 117.597 18.1001 117.355 17.4743C117.127 16.8343 117.014 16.1232 117.014 15.341V13.7623C117.014 12.7241 117.213 11.821 117.611 11.053C118.023 10.2708 118.599 9.66634 119.339 9.23967C120.093 8.79878 120.975 8.57834 121.984 8.57834C122.781 8.57834 123.485 8.73478 124.096 9.04767C124.722 9.34634 125.177 9.74456 125.462 10.2423H125.611L126.016 8.79167H129.686V20.333H126.016L125.611 18.8397H125.462C125.177 19.3659 124.722 19.7855 124.096 20.0983C123.485 20.397 122.781 20.5463 121.984 20.5463ZM123.478 17.6023C123.947 17.6023 124.367 17.5099 124.736 17.325C125.12 17.1259 125.412 16.8628 125.611 16.5357V12.5677C125.412 12.2406 125.12 11.9846 124.736 11.7997C124.367 11.6006 123.947 11.501 123.478 11.501C123.023 11.501 122.624 11.5863 122.283 11.757C121.942 11.9277 121.679 12.1695 121.494 12.4823C121.309 12.781 121.216 13.1508 121.216 13.5917V15.533C121.216 15.9597 121.309 16.3295 121.494 16.6423C121.679 16.9552 121.942 17.197 122.283 17.3677C122.624 17.5241 123.023 17.6023 123.478 17.6023Z" fill="black"/>
</svg>
