<svg width="112" height="56" viewBox="0 0 112 56" fill="none" xmlns="http://www.w3.org/2000/svg">
<path d="M14.091 17.0629C13.531 16.3909 12.7937 15.8215 11.879 15.3549C10.983 14.8882 10.0217 14.5895 8.995 14.4589C7.987 14.3095 6.96967 14.3562 5.943 14.5989C4.935 14.8415 4.05767 15.3362 3.311 16.0829L1.547 20.8429H0.875L8.099 1.18686H9.219L17.563 20.8429H15.687L14.091 17.0629ZM3.955 14.3189C4.683 13.8335 5.467 13.5349 6.307 13.4229C7.147 13.2922 7.987 13.3015 8.827 13.4509C9.68567 13.6002 10.507 13.8615 11.291 14.2349C12.0937 14.6082 12.8123 15.0469 13.447 15.5509L8.127 2.97886L3.955 14.3189Z" fill="white"/>
<path d="M23.4089 1.18686C23.8942 1.18686 24.4449 1.1962 25.0609 1.21486C25.6955 1.21486 26.3395 1.26153 26.9929 1.35486C27.6462 1.4482 28.2809 1.5882 28.8969 1.77486C29.5129 1.96153 30.0635 2.2322 30.5489 2.58686C31.0342 2.94153 31.4262 3.39886 31.7249 3.95886C32.0235 4.51886 32.1729 5.2002 32.1729 6.00286C32.1729 6.9362 31.9769 7.68286 31.5849 8.24286C31.1929 8.7842 30.6982 9.22286 30.1009 9.55886C29.5222 9.89486 28.8969 10.1655 28.2249 10.3709C27.5715 10.5762 26.9835 10.8002 26.4609 11.0429C25.6955 11.3975 25.3035 11.8735 25.2849 12.4709C25.2662 13.0682 25.4715 13.7215 25.9009 14.4309C26.3489 15.1215 26.9649 15.8309 27.7489 16.5589C28.5515 17.2869 29.3915 17.9589 30.2689 18.5749C31.1462 19.1722 32.0049 19.6855 32.8449 20.1149C33.7035 20.5255 34.4035 20.7682 34.9449 20.8429H30.8849C30.3249 20.5815 29.7369 20.2549 29.1209 19.8629C28.5049 19.4522 27.9075 19.0135 27.3289 18.5469C26.7689 18.0615 26.2369 17.5482 25.7329 17.0069C25.2475 16.4655 24.8462 15.9242 24.5289 15.3829C24.2115 14.8229 23.9969 14.2815 23.8849 13.7589C23.7915 13.2175 23.8569 12.7135 24.0809 12.2469C24.2862 11.7989 24.5849 11.4442 24.9769 11.1829C25.3689 10.9029 25.7982 10.6602 26.2649 10.4549C26.7502 10.2309 27.2355 10.0162 27.7209 9.81086C28.2062 9.60553 28.6449 9.3442 29.0369 9.02686C29.4475 8.70953 29.7835 8.31753 30.0449 7.85086C30.3062 7.36553 30.4369 6.74953 30.4369 6.00286C30.4369 4.93886 30.1942 4.11753 29.7089 3.53886C29.2235 2.9602 28.6169 2.54953 27.8889 2.30686C27.1795 2.04553 26.4142 1.8962 25.5929 1.85886C24.7902 1.82153 24.0622 1.80286 23.4089 1.80286H21.8129C21.4955 1.80286 21.2715 1.87753 21.1409 2.02686C21.0289 2.15753 20.9729 2.39086 20.9729 2.72686V20.8429H19.2369V1.18686H23.4089Z" fill="white"/>
<path d="M44.2474 10.6509C44.8448 10.8189 45.3954 11.0709 45.8994 11.4069C46.4034 11.7242 46.8328 12.1069 47.1874 12.5549C47.5608 13.0029 47.8408 13.4975 48.0274 14.0389C48.2328 14.5802 48.3354 15.1402 48.3354 15.7189C48.3354 16.4469 48.1861 17.1282 47.8874 17.7629C47.5888 18.3789 47.1781 18.9202 46.6554 19.3869C46.1328 19.8349 45.5074 20.1895 44.7794 20.4509C44.0701 20.7122 43.2861 20.8429 42.4274 20.8429H35.9034V1.18686H42.1474C42.8941 1.14953 43.5754 1.26153 44.1914 1.52286C44.8074 1.7842 45.3394 2.13886 45.7874 2.58686C46.2541 3.03486 46.6088 3.55753 46.8514 4.15486C47.1128 4.73353 47.2528 5.3402 47.2714 5.97486C47.3088 6.60953 47.2061 7.2442 46.9634 7.87886C46.7394 8.51353 46.3661 9.0922 45.8434 9.61486C45.4141 10.0442 44.8821 10.3895 44.2474 10.6509ZM42.4274 20.2269C42.9688 20.2269 43.4914 20.1149 43.9954 19.8909C44.4994 19.6669 44.9381 19.3495 45.3114 18.9389C45.7034 18.5282 46.0114 18.0522 46.2354 17.5109C46.4781 16.9695 46.5994 16.3722 46.5994 15.7189C46.6181 15.0842 46.5154 14.4869 46.2914 13.9269C46.0674 13.3482 45.7594 12.8535 45.3674 12.4429C44.9754 12.0135 44.5181 11.6775 43.9954 11.4349C43.4728 11.1735 42.9221 11.0429 42.3434 11.0429H37.6114V19.3029C37.6114 19.6389 37.6674 19.8815 37.7794 20.0309C37.9101 20.1615 38.1341 20.2269 38.4514 20.2269H42.4274ZM42.1474 10.4269C42.8754 10.4269 43.5101 10.1749 44.0514 9.67086C44.6114 9.16686 45.0128 8.54153 45.2554 7.79486C45.5168 7.0482 45.6008 6.24553 45.5074 5.38686C45.4141 4.5282 45.1061 3.7442 44.5834 3.03486C44.2661 2.6242 43.9021 2.3162 43.4914 2.11086C43.0808 1.90553 42.6328 1.80286 42.1474 1.80286H38.4514C38.1341 1.80286 37.9101 1.87753 37.7794 2.02686C37.6674 2.15753 37.6114 2.4002 37.6114 2.75486V10.4269H42.1474Z" fill="white"/>
<path d="M59.7601 0.878862C61.1228 0.916196 62.4014 1.21486 63.5961 1.77486C64.7908 2.3162 65.8268 3.0442 66.7041 3.95886C67.6001 4.85486 68.3001 5.90953 68.8041 7.12286C69.3268 8.3362 69.5881 9.63353 69.5881 11.0149C69.5881 12.3402 69.3361 13.6002 68.8321 14.7949C68.3468 15.9895 67.6748 17.0442 66.8161 17.9589C65.9761 18.8735 64.9774 19.6109 63.8201 20.1709C62.6628 20.7309 61.4121 21.0482 60.0681 21.1229C58.5934 21.2162 57.2028 21.0109 55.8961 20.5069C54.5894 20.0029 53.4508 19.2935 52.4801 18.3789C51.5094 17.4642 50.7348 16.3722 50.1561 15.1029C49.5961 13.8335 49.3161 12.4709 49.3161 11.0149C49.3161 9.55886 49.5961 8.20553 50.1561 6.95486C50.7161 5.7042 51.4721 4.62153 52.4241 3.70686C53.3761 2.7922 54.4868 2.08286 55.7561 1.57886C57.0254 1.07486 58.3601 0.841529 59.7601 0.878862ZM67.8241 10.2589C67.7121 9.0642 67.3948 7.90686 66.8721 6.78686C66.3681 5.66686 65.6961 4.6962 64.8561 3.87486C64.0161 3.05353 63.0454 2.4282 61.9441 1.99886C60.8428 1.55086 59.6481 1.40153 58.3601 1.55086C57.1841 1.7002 56.1201 2.08286 55.1681 2.69886C54.2161 3.31486 53.4134 4.08953 52.7601 5.02286C52.1254 5.9562 51.6494 7.01086 51.3321 8.18686C51.0334 9.3442 50.9401 10.5295 51.0521 11.7429C51.1641 12.9562 51.4721 14.1135 51.9761 15.2149C52.4801 16.2975 53.1241 17.2402 53.9081 18.0429C54.7108 18.8455 55.6348 19.4709 56.6801 19.9189C57.7254 20.3669 58.8454 20.5629 60.0401 20.5069C61.3281 20.4322 62.4761 20.0869 63.4841 19.4709C64.5108 18.8362 65.3601 18.0429 66.0321 17.0909C66.7228 16.1202 67.2174 15.0469 67.5161 13.8709C67.8334 12.6762 67.9361 11.4722 67.8241 10.2589Z" fill="white"/>
<path d="M75.432 1.18686C75.9173 1.18686 76.468 1.1962 77.084 1.21486C77.7187 1.21486 78.3627 1.26153 79.016 1.35486C79.6693 1.4482 80.304 1.5882 80.92 1.77486C81.536 1.96153 82.0867 2.2322 82.572 2.58686C83.0573 2.94153 83.4493 3.39886 83.748 3.95886C84.0467 4.51886 84.196 5.2002 84.196 6.00286C84.196 6.9362 84 7.68286 83.608 8.24286C83.216 8.7842 82.7213 9.22286 82.124 9.55886C81.5453 9.89486 80.92 10.1655 80.248 10.3709C79.5947 10.5762 79.0067 10.8002 78.484 11.0429C77.7187 11.3975 77.3267 11.8735 77.308 12.4709C77.2893 13.0682 77.4947 13.7215 77.924 14.4309C78.372 15.1215 78.988 15.8309 79.772 16.5589C80.5747 17.2869 81.4147 17.9589 82.292 18.5749C83.1693 19.1722 84.028 19.6855 84.868 20.1149C85.7267 20.5255 86.4267 20.7682 86.968 20.8429H82.908C82.348 20.5815 81.76 20.2549 81.144 19.8629C80.528 19.4522 79.9307 19.0135 79.352 18.5469C78.792 18.0615 78.26 17.5482 77.756 17.0069C77.2707 16.4655 76.8693 15.9242 76.552 15.3829C76.2347 14.8229 76.02 14.2815 75.908 13.7589C75.8147 13.2175 75.88 12.7135 76.104 12.2469C76.3093 11.7989 76.608 11.4442 77 11.1829C77.392 10.9029 77.8213 10.6602 78.288 10.4549C78.7733 10.2309 79.2587 10.0162 79.744 9.81086C80.2293 9.60553 80.668 9.3442 81.06 9.02686C81.4707 8.70953 81.8067 8.31753 82.068 7.85086C82.3293 7.36553 82.46 6.74953 82.46 6.00286C82.46 4.93886 82.2173 4.11753 81.732 3.53886C81.2467 2.9602 80.64 2.54953 79.912 2.30686C79.2027 2.04553 78.4373 1.8962 77.616 1.85886C76.8133 1.82153 76.0853 1.80286 75.432 1.80286H73.836C73.5187 1.80286 73.2947 1.87753 73.164 2.02686C73.052 2.15753 72.996 2.39086 72.996 2.72686V20.8429H71.26V1.18686H75.432Z" fill="white"/>
<path d="M3.423 29.8029C3.10567 29.8029 2.891 29.8775 2.779 30.0269C2.667 30.1575 2.611 30.4002 2.611 30.7549V38.7069H10.647V39.3229H2.611V48.8429H0.875V29.1869H12.131V31.0349C10.5817 30.4375 9.09767 30.0829 7.679 29.9709C6.26033 29.8589 4.84167 29.8029 3.423 29.8029Z" fill="white"/>
<path d="M22.8723 28.8789C24.2349 28.9162 25.5136 29.2149 26.7083 29.7749C27.9029 30.3162 28.9389 31.0442 29.8163 31.9589C30.7123 32.8549 31.4123 33.9095 31.9163 35.1229C32.4389 36.3362 32.7003 37.6335 32.7003 39.0149C32.7003 40.3402 32.4483 41.6002 31.9443 42.7949C31.4589 43.9895 30.7869 45.0442 29.9283 45.9589C29.0883 46.8735 28.0896 47.6109 26.9323 48.1709C25.7749 48.7309 24.5243 49.0482 23.1803 49.1229C21.7056 49.2162 20.3149 49.0109 19.0083 48.5069C17.7016 48.0029 16.5629 47.2935 15.5923 46.3789C14.6216 45.4642 13.8469 44.3722 13.2683 43.1029C12.7083 41.8335 12.4283 40.4709 12.4283 39.0149C12.4283 37.5589 12.7083 36.2055 13.2683 34.9549C13.8283 33.7042 14.5843 32.6215 15.5363 31.7069C16.4883 30.7922 17.5989 30.0829 18.8683 29.5789C20.1376 29.0749 21.4723 28.8415 22.8723 28.8789ZM30.9363 38.2589C30.8243 37.0642 30.5069 35.9069 29.9843 34.7869C29.4803 33.6669 28.8083 32.6962 27.9683 31.8749C27.1283 31.0535 26.1576 30.4282 25.0563 29.9989C23.9549 29.5509 22.7603 29.4015 21.4723 29.5509C20.2963 29.7002 19.2323 30.0829 18.2803 30.6989C17.3283 31.3149 16.5256 32.0895 15.8723 33.0229C15.2376 33.9562 14.7616 35.0109 14.4443 36.1869C14.1456 37.3442 14.0523 38.5295 14.1643 39.7429C14.2763 40.9562 14.5843 42.1135 15.0883 43.2149C15.5923 44.2975 16.2363 45.2402 17.0203 46.0429C17.8229 46.8455 18.7469 47.4709 19.7923 47.9189C20.8376 48.3669 21.9576 48.5629 23.1523 48.5069C24.4403 48.4322 25.5883 48.0869 26.5963 47.4709C27.6229 46.8362 28.4723 46.0429 29.1443 45.0909C29.8349 44.1202 30.3296 43.0469 30.6283 41.8709C30.9456 40.6762 31.0483 39.4722 30.9363 38.2589Z" fill="white"/>
<path d="M38.5442 29.1869C39.0295 29.1869 39.5802 29.1962 40.1962 29.2149C40.8309 29.2149 41.4749 29.2615 42.1282 29.3549C42.7815 29.4482 43.4162 29.5882 44.0322 29.7749C44.6482 29.9615 45.1989 30.2322 45.6842 30.5869C46.1695 30.9415 46.5615 31.3989 46.8602 31.9589C47.1589 32.5189 47.3082 33.2002 47.3082 34.0029C47.3082 34.9362 47.1122 35.6829 46.7202 36.2429C46.3282 36.7842 45.8335 37.2229 45.2362 37.5589C44.6575 37.8949 44.0322 38.1655 43.3602 38.3709C42.7069 38.5762 42.1189 38.8002 41.5962 39.0429C40.8309 39.3975 40.4389 39.8735 40.4202 40.4709C40.4015 41.0682 40.6069 41.7215 41.0362 42.4309C41.4842 43.1215 42.1002 43.8309 42.8842 44.5589C43.6869 45.2869 44.5269 45.9589 45.4042 46.5749C46.2815 47.1722 47.1402 47.6855 47.9802 48.1149C48.8389 48.5255 49.5389 48.7682 50.0802 48.8429H46.0202C45.4602 48.5815 44.8722 48.2549 44.2562 47.8629C43.6402 47.4522 43.0429 47.0135 42.4642 46.5469C41.9042 46.0615 41.3722 45.5482 40.8682 45.0069C40.3829 44.4655 39.9815 43.9242 39.6642 43.3829C39.3469 42.8229 39.1322 42.2815 39.0202 41.7589C38.9269 41.2175 38.9922 40.7135 39.2162 40.2469C39.4215 39.7989 39.7202 39.4442 40.1122 39.1829C40.5042 38.9029 40.9335 38.6602 41.4002 38.4549C41.8855 38.2309 42.3709 38.0162 42.8562 37.8109C43.3415 37.6055 43.7802 37.3442 44.1722 37.0269C44.5829 36.7095 44.9189 36.3175 45.1802 35.8509C45.4415 35.3655 45.5722 34.7495 45.5722 34.0029C45.5722 32.9389 45.3295 32.1175 44.8442 31.5389C44.3589 30.9602 43.7522 30.5495 43.0242 30.3069C42.3149 30.0455 41.5495 29.8962 40.7282 29.8589C39.9255 29.8215 39.1975 29.8029 38.5442 29.8029H36.9482C36.6309 29.8029 36.4069 29.8775 36.2762 30.0269C36.1642 30.1575 36.1082 30.3909 36.1082 30.7269V48.8429H34.3722V29.1869H38.5442Z" fill="white"/>
<path d="M54.2977 48.2269C55.007 48.2269 55.707 48.2269 56.3977 48.2269C57.107 48.2082 57.8164 48.1615 58.5257 48.0869C59.2537 48.0122 59.9817 47.8909 60.7097 47.7229C61.4564 47.5549 62.2124 47.3215 62.9777 47.0229V48.8429H51.7497V29.1869H62.9777V31.0349C61.727 30.5495 60.4577 30.2229 59.1697 30.0549C57.9004 29.8869 56.743 29.8029 55.6977 29.8029C55.3057 29.8029 54.9604 29.8029 54.6617 29.8029C54.3817 29.7842 54.1484 29.8029 53.9617 29.8589C53.7937 29.8962 53.663 29.9802 53.5697 30.1109C53.495 30.2415 53.4577 30.4562 53.4577 30.7549V38.7069H61.4937V39.3229H53.4577V47.3029C53.4577 47.6389 53.5137 47.8815 53.6257 48.0309C53.7564 48.1615 53.9804 48.2269 54.2977 48.2269Z" fill="white"/>
<path d="M66.8036 30.8949C66.393 31.3615 66.1036 31.8095 65.9356 32.2389C65.7863 32.6495 65.721 33.0415 65.7396 33.4149C65.777 33.7882 65.8983 34.1522 66.1036 34.5069C66.309 34.8429 66.5703 35.1602 66.8876 35.4589C67.373 35.9255 67.9423 36.3362 68.5956 36.6909C69.2676 37.0455 69.9676 37.3815 70.6956 37.6989C71.4423 38.0162 72.189 38.3335 72.9356 38.6509C73.701 38.9495 74.4103 39.2855 75.0636 39.6589C75.717 40.0322 76.2863 40.4615 76.7716 40.9469C77.2756 41.4322 77.649 42.0015 77.8916 42.6549C78.1156 43.3082 78.1343 44.0082 77.9476 44.7549C77.761 45.5015 77.2756 46.2949 76.4916 47.1349C75.9316 47.7322 75.2503 48.1895 74.4476 48.5069C73.6636 48.8055 72.8236 48.9735 71.9276 49.0109C71.0503 49.0669 70.1543 49.0015 69.2396 48.8149C68.3436 48.6095 67.4943 48.2922 66.6916 47.8629C65.9076 47.4335 65.2076 46.9015 64.5916 46.2669C63.9943 45.6322 63.5556 44.8949 63.2756 44.0549L64.1996 42.3469C64.461 43.1309 64.8716 43.8495 65.4316 44.5029C66.0103 45.1375 66.6636 45.6975 67.3916 46.1829C68.1383 46.6495 68.9316 47.0322 69.7716 47.3309C70.6116 47.6109 71.4236 47.7789 72.2076 47.8349C73.0103 47.8909 73.7476 47.8255 74.4196 47.6389C75.1103 47.4522 75.6703 47.1162 76.0996 46.6309C76.585 46.0895 76.8276 45.5482 76.8276 45.0069C76.8276 44.4655 76.6783 43.9335 76.3796 43.4109C76.025 42.8135 75.5863 42.3002 75.0636 41.8709C74.541 41.4229 73.9623 41.0309 73.3276 40.6949C72.7116 40.3589 72.0676 40.0509 71.3956 39.7709C70.7236 39.4909 70.0516 39.2109 69.3796 38.9309C68.7263 38.6322 68.0916 38.3149 67.4756 37.9789C66.8596 37.6429 66.309 37.2509 65.8236 36.8029C65.4316 36.4482 65.1143 36.0562 64.8716 35.6269C64.629 35.1975 64.4983 34.7309 64.4796 34.2269C64.461 33.7229 64.5823 33.1815 64.8436 32.6029C65.105 32.0055 65.5343 31.3709 66.1316 30.6989C66.561 30.2135 67.1116 29.8309 67.7836 29.5509C68.4556 29.2522 69.1743 29.0469 69.9396 28.9349C70.7236 28.8229 71.517 28.8042 72.3196 28.8789C73.141 28.9535 73.9063 29.1029 74.6156 29.3269C75.325 29.5509 75.9503 29.8495 76.4916 30.2229C77.033 30.5775 77.425 31.0069 77.6676 31.5109L76.5196 32.9389C76.3703 32.5655 76.0716 32.2015 75.6236 31.8469C75.1943 31.4922 74.6716 31.1749 74.0556 30.8949C73.4396 30.6149 72.777 30.3909 72.0676 30.2229C71.3583 30.0549 70.6676 29.9615 69.9956 29.9429C69.3236 29.9055 68.6983 29.9615 68.1196 30.1109C67.5596 30.2602 67.121 30.5215 66.8036 30.8949Z" fill="white"/>
<path d="M85.9552 29.8029C85.3952 29.8029 84.8445 29.8215 84.3032 29.8589C83.7619 29.8775 83.2112 29.9335 82.6512 30.0269C82.0912 30.1202 81.5125 30.2509 80.9152 30.4189C80.3365 30.5682 79.7205 30.7642 79.0672 31.0069V29.1869H94.5512V31.0069C93.8979 30.7642 93.2725 30.5682 92.6752 30.4189C92.0965 30.2509 91.5272 30.1202 90.9672 30.0269C90.4072 29.9335 89.8565 29.8775 89.3152 29.8589C88.7739 29.8215 88.2232 29.8029 87.6632 29.8029V48.8429H85.9552V29.8029Z" fill="white"/>
<path d="M102.778 40.8069L96.2259 29.1869H98.2139L104.15 39.7429L109.778 29.1869H110.45L104.514 40.3869L104.486 48.8429H102.778V40.8069Z" fill="white"/>
</svg>
